REM DIRINDEX 1\3,1\2\4,1\2\5,1\2\6
REM DIRNAME cjc137,folder01,folder02,folder03,folder04,folder05
TITLE ""
FILE "105.mp3" MP3
  TRACK 01 AUDIO
    TITLE "4:cjc137_4329"
    INDEX 01 00:00:00
  TRACK 02 AUDIO
    TITLE "0:"
    INDEX 01 00:01:09
  TRACK 03 AUDIO
    TITLE "6:cjc137_4330"
    INDEX 01 00:01:17
  TRACK 04 AUDIO
    TITLE "0:"
    INDEX 01 00:02:30
  TRACK 05 AUDIO
    TITLE "5:cjc137_4331"
    INDEX 01 00:02:38
  TRACK 06 AUDIO
    TITLE "0:"
    INDEX 01 00:03:45
  TRACK 07 AUDIO
    TITLE "4:cjc137_4332"
    INDEX 01 00:04:56
  TRACK 08 AUDIO
    TITLE "0:"
    INDEX 01 00:05:57
  TRACK 09 AUDIO
    TITLE "6:cjc137_4333"
    INDEX 01 00:05:67
  TRACK 10 AUDIO
    TITLE "0:"
    INDEX 01 00:06:71
  TRACK 11 AUDIO
    TITLE "5:cjc137_4334"
    INDEX 01 00:07:03
  TRACK 12 AUDIO
    TITLE "0:"
    INDEX 01 00:08:03
  TRACK 13 AUDIO
    TITLE "4:cjc137_4335"
    INDEX 01 00:09:14
  TRACK 14 AUDIO
    TITLE "0:"
    INDEX 01 00:10:27
  TRACK 15 AUDIO
    TITLE "6:cjc137_4336"
    INDEX 01 00:10:35
  TRACK 16 AUDIO
    TITLE "0:"
    INDEX 01 00:11:54
  TRACK 17 AUDIO
    TITLE "5:cjc137_4337"
    INDEX 01 00:11:58
  TRACK 18 AUDIO
    TITLE "0:"
    INDEX 01 00:12:69
  TRACK 19 AUDIO
    TITLE "4:cjc137_4338"
    INDEX 01 00:14:04
  TRACK 20 AUDIO
    TITLE "0:"
    INDEX 01 00:15:15
  TRACK 21 AUDIO
    TITLE "6:cjc137_4339"
    INDEX 01 00:15:23
  TRACK 22 AUDIO
    TITLE "0:"
    INDEX 01 00:16:36
  TRACK 23 AUDIO
    TITLE "5:cjc137_4340"
    INDEX 01 00:16:46
  TRACK 24 AUDIO
    TITLE "0:"
    INDEX 01 00:17:57
  TRACK 25 AUDIO
    TITLE "4:cjc137_4341"
    INDEX 01 00:18:66
  TRACK 26 AUDIO
    TITLE "0:"
    INDEX 01 00:20:24
  TRACK 27 AUDIO
    TITLE "6:cjc137_4342"
    INDEX 01 00:20:28
  TRACK 28 AUDIO
    TITLE "0:"
    INDEX 01 00:21:27
  TRACK 29 AUDIO
    TITLE "5:cjc137_4343"
    INDEX 01 00:21:31
  TRACK 30 AUDIO
    TITLE "0:"
    INDEX 01 00:22:62
  TRACK 31 AUDIO
    TITLE "4:cjc137_4344"
    INDEX 01 00:23:69
  TRACK 32 AUDIO
    TITLE "0:"
    INDEX 01 00:25:05
  TRACK 33 AUDIO
    TITLE "6:cjc137_4345"
    INDEX 01 00:25:11
  TRACK 34 AUDIO
    TITLE "0:"
    INDEX 01 00:27:49
  TRACK 35 AUDIO
    TITLE "5:cjc137_4346"
    INDEX 01 00:27:55
  TRACK 36 AUDIO
    TITLE "0:"
    INDEX 01 00:28:66
  TRACK 37 AUDIO
    TITLE "4:cjc137_4347"
    INDEX 01 00:29:74
  TRACK 38 AUDIO
    TITLE "0:"
    INDEX 01 00:31:31
  TRACK 39 AUDIO
    TITLE "6:cjc137_4348"
    INDEX 01 00:31:41
  TRACK 40 AUDIO
    TITLE "0:"
    INDEX 01 00:32:72
  TRACK 41 AUDIO
    TITLE "5:cjc137_4349"
    INDEX 01 00:33:05
  TRACK 42 AUDIO
    TITLE "0:"
    INDEX 01 00:34:36
  TRACK 43 AUDIO
    TITLE "4:cjc137_4350"
    INDEX 01 00:35:47
  TRACK 44 AUDIO
    TITLE "0:"
    INDEX 01 00:36:74
  TRACK 45 AUDIO
    TITLE "6:cjc137_4351"
    INDEX 01 00:37:05
  TRACK 46 AUDIO
    TITLE "0:"
    INDEX 01 00:39:17
  TRACK 47 AUDIO
    TITLE "5:cjc137_4352"
    INDEX 01 00:39:25
  TRACK 48 AUDIO
    TITLE "0:"
    INDEX 01 00:40:50
  TRACK 49 AUDIO
    TITLE "4:cjc137_4353"
    INDEX 01 00:41:61
  TRACK 50 AUDIO
    TITLE "0:"
    INDEX 01 00:43:15
  TRACK 51 AUDIO
    TITLE "6:cjc137_4354"
    INDEX 01 00:43:23
  TRACK 52 AUDIO
    TITLE "0:"
    INDEX 01 00:44:24
  TRACK 53 AUDIO
    TITLE "5:cjc137_4355"
    INDEX 01 00:44:34
  TRACK 54 AUDIO
    TITLE "0:"
    INDEX 01 00:45:63
  TRACK 55 AUDIO
    TITLE "4:cjc137_4356"
    INDEX 01 00:46:72
  TRACK 56 AUDIO
    TITLE "0:"
    INDEX 01 00:48:08
  TRACK 57 AUDIO
    TITLE "6:cjc137_4357"
    INDEX 01 00:48:14
  TRACK 58 AUDIO
    TITLE "0:"
    INDEX 01 00:49:00
  TRACK 59 AUDIO
    TITLE "5:cjc137_4358"
    INDEX 01 00:49:08
  TRACK 60 AUDIO
    TITLE "0:"
    INDEX 01 00:50:17
  TRACK 61 AUDIO
    TITLE "4:cjc137_4359"
    INDEX 01 00:51:26
  TRACK 62 AUDIO
    TITLE "0:"
    INDEX 01 00:52:18
  TRACK 63 AUDIO
    TITLE "6:cjc137_4360"
    INDEX 01 00:52:30
  TRACK 64 AUDIO
    TITLE "0:"
    INDEX 01 00:53:29
  TRACK 65 AUDIO
    TITLE "5:cjc137_4361"
    INDEX 01 00:53:39
  TRACK 66 AUDIO
    TITLE "0:"
    INDEX 01 00:54:34
  TRACK 67 AUDIO
    TITLE "4:cjc137_4362"
    INDEX 01 00:55:44
  TRACK 68 AUDIO
    TITLE "0:"
    INDEX 01 00:56:57
  TRACK 69 AUDIO
    TITLE "6:cjc137_4363"
    INDEX 01 00:56:65
  TRACK 70 AUDIO
    TITLE "0:"
    INDEX 01 00:57:62
  TRACK 71 AUDIO
    TITLE "5:cjc137_4364"
    INDEX 01 00:57:66
  TRACK 72 AUDIO
    TITLE "0:"
    INDEX 01 00:59:06
  TRACK 73 AUDIO
    TITLE "4:cjc137_4365"
    INDEX 01 01:00:13
  TRACK 74 AUDIO
    TITLE "0:"
    INDEX 01 01:01:09
  TRACK 75 AUDIO
    TITLE "6:cjc137_4366"
    INDEX 01 01:01:21
  TRACK 76 AUDIO
    TITLE "0:"
    INDEX 01 01:02:24
  TRACK 77 AUDIO
    TITLE "5:cjc137_4367"
    INDEX 01 01:02:30
  TRACK 78 AUDIO
    TITLE "0:"
    INDEX 01 01:03:27
  TRACK 79 AUDIO
    TITLE "4:cjc137_4368"
    INDEX 01 01:04:41
  TRACK 80 AUDIO
    TITLE "0:"
    INDEX 01 01:05:42
  TRACK 81 AUDIO
    TITLE "6:cjc137_4369"
    INDEX 01 01:05:46
  TRACK 82 AUDIO
    TITLE "0:"
    INDEX 01 01:06:51
  TRACK 83 AUDIO
    TITLE "5:cjc137_4370"
    INDEX 01 01:06:59
  TRACK 84 AUDIO
    TITLE "0:"
    INDEX 01 01:07:59
